PathFileType	4	(x/y/z)	S08_BK_Cal_T01
DataRate	CameraRate	NumFrames	NumMarkers	Units	OrigDataRate	OrigDataStartFrame	OrigNumFrames
240	240	4	51	mm	240	601	2400
Frame#	Time	Sternum			R.Acromium			L.Acromium			Top.Head			R.ASIS			L.ASIS			R.PSIS			L.PSIS			R.Great.Tro			L.Great.Tro			R.Iliac.Crest			L.Iliac.Crest			V.Sacral			R.Thigh.Upper.Post			R.Thigh.Lower.Ant			R.Thigh.Lower.Post			R.Thigh.Upper.Ant			R.Knee.Lat			R.Knee.Med			R.Shank.Upper.Post			R.Shank.Lower.Ant			R.Shank.Lower.Post			R.Shank.Upper.Ant			R.Ankle.Lat			R.Ankle.Med			R.Heel.Upper			R.Heel.Med			R.Heel.Lat			R.Toe.Lat			R.Toe.Med			R.Toe.Tip			L.Thigh.Upper.Post			L.Thigh.Lower.Ant			L.Thigh.Lower.Post			L.Thigh.Upper.Ant			L.Knee.Lat			L.Knee.Med			L.Shank.Upper.Post			L.Shank.Lower.Ant			L.Shank.Lower.Post			L.Shank.Upper.Ant			L.Ankle.Lat			L.Ankle.Med			L.Heel.Upper			L.Heel.Med			L.Heel.Lat			L.Toe.Lat			L.Toe.Med			L.Toe.Tip			Cervical.Spine			Back			
		X1	Y1	Z1	X2	Y2	Z2	X3	Y3	Z3	X4	Y4	Z4	X5	Y5	Z5	X6	Y6	Z6	X7	Y7	Z7	X8	Y8	Z8	X9	Y9	Z9	X10	Y10	Z10	X11	Y11	Z11	X12	Y12	Z12	X13	Y13	Z13	X14	Y14	Z14	X15	Y15	Z15	X16	Y16	Z16	X17	Y17	Z17	X18	Y18	Z18	X19	Y19	Z19	X20	Y20	Z20	X21	Y21	Z21	X22	Y22	Z22	X23	Y23	Z23	X24	Y24	Z24	X25	Y25	Z25	X26	Y26	Z26	X27	Y27	Z27	X28	Y28	Z28	X29	Y29	Z29	X30	Y30	Z30	X31	Y31	Z31	X32	Y32	Z32	X33	Y33	Z33	X34	Y34	Z34	X35	Y35	Z35	X36	Y36	Z36	X37	Y37	Z37	X38	Y38	Z38	X39	Y39	Z39	X40	Y40	Z40	X41	Y41	Z41	X42	Y42	Z42	X43	Y43	Z43	X44	Y44	Z44	X45	Y45	Z45	X46	Y46	Z46	X47	Y47	Z47	X48	Y48	Z48	X49	Y49	Z49	X50	Y50	Z50	X51	Y51	Z51	

601	2.5	500.51	1158.2	316.17	413.85	1416.2	484.13	413.22	1438.4	150.11	420.81	1734.9	335.21	415.06	944.63	428.4	424.55	942.03	195.5	227.94	1023.1	346.97	238.05	1025.2	253.12	329.1	873.88	502.38	317.74	875.67	119.99	341.79	1038.3	468.44	363.29	1045.2	166.8	206.06	989.07	297.22	378.77	679.66	516.33	489.72	614.26	505.64	419.81	597.78	506.99	454.98	702.84	512.93	491.12	512.29	507.65	477.43	496.99	382.04	398.41	346.08	527.27	444.63	270.18	514.99	380.73	271.31	527.83	462.83	346.31	518.82	341.19	104.25	510.27	374.31	110.66	431.18	291.38	65.533	463.14	305.84	38.987	437.34	294.47	41.554	498.49	466.62	32.547	557.35	491.39	44.978	440.53	553.38	61.673	490.78	376.55	671.84	104.98	492.03	619.84	106.28	427.2	595.61	109.56	444.95	695.86	97.457	480.76	507.96	109.48	496.76	494.43	230.25	392.68	349.86	95.861	438.78	247.89	104.24	373.57	278.08	105.97	452.45	322.79	95.614	351.05	105.42	101.83	379.91	101.86	186.26	294.94	75.214	150.08	311.95	41.74	179.35	300.95	47.953	116.7	474.7	39.725	67.942	501.92	45.332	180.37	561.45	62.158	127.13	351.24	1478.4	308.18	269.6	1209.7	320.39
602	2.5042	500.51	1158.2	316.21	413.84	1416.2	484.17	413.21	1438.4	150.14	420.83	1734.9	335.24	415.05	944.62	428.42	424.55	942.03	195.52	227.92	1023.1	346.98	238.04	1025.2	253.13	329.08	873.88	502.39	317.74	875.67	120	341.77	1038.3	468.45	363.3	1045.2	166.82	206.05	989.07	297.23	378.76	679.66	516.33	489.71	614.26	505.64	419.8	597.77	506.99	454.97	702.84	512.93	491.12	512.29	507.65	477.42	496.99	382.03	398.41	346.08	527.27	444.63	270.18	514.99	380.73	271.31	527.83	462.82	346.31	518.82	341.19	104.25	510.27	374.31	110.66	431.18	291.38	65.533	463.14	305.84	38.988	437.34	294.47	41.555	498.5	466.61	32.55	557.35	491.39	44.977	440.53	553.38	61.671	490.78	376.56	671.85	104.98	492.04	619.84	106.29	427.2	595.61	109.56	444.96	695.87	97.466	480.76	507.96	109.49	496.75	494.43	230.25	392.68	349.86	95.86	438.78	247.89	104.24	373.56	278.08	105.97	452.45	322.79	95.613	351.05	105.42	101.83	379.91	101.86	186.26	294.94	75.214	150.08	311.95	41.741	179.35	300.95	47.953	116.7	474.7	39.725	67.942	501.92	45.333	180.37	561.45	62.16	127.13	351.24	1478.4	308.23	269.59	1209.7	320.41
603	2.5083	500.51	1158.2	316.24	413.83	1416.2	484.21	413.2	1438.4	150.18	420.85	1734.9	335.28	415.03	944.62	428.44	424.55	942.03	195.54	227.9	1023.1	346.99	238.04	1025.2	253.14	329.06	873.87	502.4	317.75	875.67	120.01	341.75	1038.3	468.47	363.3	1045.2	166.84	206.05	989.07	297.23	378.75	679.65	516.33	489.7	614.26	505.65	419.79	597.77	506.98	454.96	702.83	512.94	491.11	512.29	507.65	477.42	497	382.03	398.41	346.08	527.27	444.63	270.18	514.99	380.73	271.31	527.83	462.82	346.31	518.82	341.19	104.25	510.27	374.31	110.66	431.18	291.38	65.532	463.14	305.84	38.988	437.34	294.47	41.555	498.5	466.61	32.553	557.35	491.39	44.976	440.52	553.38	61.669	490.78	376.57	671.86	104.98	492.05	619.85	106.3	427.21	595.62	109.56	444.97	695.87	97.476	480.76	507.96	109.49	496.75	494.42	230.25	392.68	349.86	95.86	438.78	247.9	104.24	373.56	278.08	105.97	452.45	322.79	95.613	351.05	105.42	101.82	379.91	101.86	186.26	294.94	75.214	150.08	311.95	41.741	179.35	300.95	47.953	116.7	474.7	39.726	67.941	501.92	45.335	180.37	561.45	62.161	127.12	351.23	1478.4	308.29	269.58	1209.7	320.44
604	2.5125	500.5	1158.2	316.27	413.82	1416.2	484.25	413.2	1438.4	150.21	420.87	1734.9	335.31	415.01	944.61	428.46	424.55	942.03	195.56	227.88	1023.1	346.99	238.04	1025.2	253.15	329.04	873.86	502.42	317.76	875.67	120.02	341.72	1038.3	468.48	363.3	1045.2	166.86	206.04	989.07	297.24	378.74	679.64	516.33	489.7	614.25	505.65	419.78	597.76	506.98	454.95	702.83	512.95	491.11	512.29	507.65	477.42	497	382.03	398.41	346.08	527.27	444.63	270.17	514.99	380.73	271.31	527.83	462.82	346.31	518.82	341.19	104.25	510.27	374.31	110.66	431.18	291.39	65.532	463.14	305.84	38.988	437.34	294.47	41.555	498.5	466.6	32.556	557.35	491.39	44.975	440.52	553.38	61.668	490.78	376.59	671.87	104.98	492.07	619.85	106.31	427.22	595.62	109.56	444.98	695.88	97.486	480.77	507.96	109.49	496.75	494.42	230.26	392.69	349.86	95.86	438.78	247.9	104.24	373.56	278.08	105.97	452.45	322.79	95.614	351.05	105.42	101.83	379.91	101.86	186.26	294.94	75.214	150.08	311.95	41.742	179.35	300.95	47.953	116.7	474.71	39.726	67.941	501.92	45.336	180.37	561.45	62.162	127.12	351.23	1478.4	308.35	269.57	1209.7	320.46
